<svg width="60" height="60" viewBox="0 0 60 60" fill="none" xmlns="http://www.w3.org/2000/svg">
<g filter="url(#filter0_f_143_29268)">
<path d="M56 30C56 44.3594 44.3594 56 30 56C15.6406 56 4 44.3594 4 30C4 15.6406 15.6406 4 30 4C44.3594 4 56 15.6406 56 30Z" fill="#FF72F9"/>
</g>
<g filter="url(#filter1_f_143_29268)">
<path fill-rule="evenodd" clip-rule="evenodd" d="M30 55.4237C44.0411 55.4237 55.4237 44.0411 55.4237 30C55.4237 15.9589 44.0411 4.57625 30 4.57625C15.9589 4.57625 4.57625 15.9589 4.57625 30C4.57625 44.0411 15.9589 55.4237 30 55.4237ZM30 56C44.3594 56 56 44.3594 56 30C56 15.6406 44.3594 4 30 4C15.6406 4 4 15.6406 4 30C4 44.3594 15.6406 56 30 56Z" fill="#FF00F5"/>
</g>
<g filter="url(#filter2_f_143_29268)">
<path d="M53.4863 29.9999C53.4863 42.9711 42.9711 53.4864 29.9999 53.4864C17.0287 53.4864 6.51343 42.9711 6.51343 29.9999C6.51343 17.0287 17.0287 6.51349 29.9999 6.51349C42.9711 6.51349 53.4863 17.0287 53.4863 29.9999Z" fill="#632679"/>
</g>
<g filter="url(#filter3_f_143_29268)">
<path fill-rule="evenodd" clip-rule="evenodd" d="M54.0627 30C54.0627 43.2894 43.2894 54.0627 30 54.0627C16.7105 54.0627 5.93726 43.2894 5.93726 30C5.93726 16.7105 16.7105 5.93726 30 5.93726C43.2894 5.93726 54.0627 16.7105 54.0627 30ZM30 53.4864C42.9712 53.4864 53.4864 42.9712 53.4864 30C53.4864 17.0288 42.9712 6.51351 30 6.51351C17.0288 6.51351 6.51351 17.0288 6.51351 30C6.51351 42.9712 17.0288 53.4864 30 53.4864Z" fill="white"/>
</g>
<g filter="url(#filter4_f_143_29268)">
<path d="M37.701 32.0212C37.701 36.3102 34.224 39.7872 29.935 39.7872C25.6459 39.7872 22.1689 36.3102 22.1689 32.0212C22.1689 27.7321 25.6459 24.2551 29.935 24.2551C34.224 24.2551 37.701 27.7321 37.701 32.0212Z" fill="#AA00FA" fill-opacity="0.4"/>
</g>
<g filter="url(#filter5_f_143_29268)">
<path fill-rule="evenodd" clip-rule="evenodd" d="M29.0706 11.1486C29.0706 10.5121 29.5866 9.99609 30.2231 9.99609C30.8596 9.99609 31.3756 10.5121 31.3756 11.1486V14.5716C31.3756 15.2081 30.8596 15.7241 30.2231 15.7241C29.5866 15.7241 29.0706 15.2081 29.0706 14.5716V11.1486Z" fill="#FF00F5"/>
</g>
<g filter="url(#filter6_f_143_29268)">
<path fill-rule="evenodd" clip-rule="evenodd" d="M29.0706 48.8513C29.0706 49.4878 29.5866 50.0038 30.2231 50.0038C30.8596 50.0038 31.3756 49.4878 31.3756 48.8513V45.4283C31.3756 44.7918 30.8596 44.2758 30.2231 44.2758C29.5866 44.2758 29.0706 44.7918 29.0706 45.4283V48.8513Z" fill="#FF00F5"/>
</g>
<g filter="url(#filter7_f_143_29268)">
<path fill-rule="evenodd" clip-rule="evenodd" d="M42.0142 16.0444C42.4642 15.5944 43.194 15.5944 43.644 16.0444C44.0941 16.4945 44.0941 17.2243 43.644 17.6743L42.135 19.1834C41.6849 19.6335 40.9552 19.6335 40.5051 19.1834C40.055 18.7333 40.055 18.0036 40.5051 17.5535L42.0142 16.0444Z" fill="#FF00F5"/>
</g>
<g filter="url(#filter8_f_143_29268)">
<path fill-rule="evenodd" clip-rule="evenodd" d="M42.0142 43.9555C42.4642 44.4056 43.194 44.4056 43.644 43.9555C44.0941 43.5054 44.0941 42.7757 43.644 42.3256L42.135 40.8166C41.6849 40.3665 40.9552 40.3665 40.5051 40.8166C40.055 41.2667 40.055 41.9964 40.5051 42.4465L42.0142 43.9555Z" fill="#FF00F5"/>
</g>
<g filter="url(#filter9_f_143_29268)">
<path fill-rule="evenodd" clip-rule="evenodd" d="M48.3101 31.3098C48.9467 31.3098 49.4626 30.7938 49.4626 30.1572C49.4626 29.5207 48.9467 29.0047 48.3101 29.0047L44.8871 29.0047C44.2506 29.0047 43.7346 29.5207 43.7346 30.1572C43.7346 30.7938 44.2506 31.3098 44.8871 31.3098L48.3101 31.3098Z" fill="#FF00F5"/>
</g>
<g filter="url(#filter10_f_143_29268)">
<path fill-rule="evenodd" clip-rule="evenodd" d="M17.9858 16.0444C17.5358 15.5944 16.806 15.5944 16.356 16.0444C15.9059 16.4945 15.9059 17.2242 16.356 17.6743L17.865 19.1834C18.3151 19.6335 19.0448 19.6335 19.4949 19.1834C19.945 18.7333 19.945 18.0036 19.4949 17.5535L17.9858 16.0444Z" fill="#FF00F5"/>
</g>
<g filter="url(#filter11_f_143_29268)">
<path fill-rule="evenodd" clip-rule="evenodd" d="M17.9858 43.9555C17.5358 44.4056 16.806 44.4056 16.356 43.9555C15.9059 43.5054 15.9059 42.7757 16.356 42.3256L17.865 40.8166C18.3151 40.3665 19.0448 40.3665 19.4949 40.8166C19.945 41.2667 19.945 41.9964 19.4949 42.4465L17.9858 43.9555Z" fill="#FF00F5"/>
</g>
<g filter="url(#filter12_f_143_29268)">
<path fill-rule="evenodd" clip-rule="evenodd" d="M11.6899 31.3098C11.0533 31.3098 10.5374 30.7938 10.5374 30.1572C10.5374 29.5207 11.0533 29.0047 11.6899 29.0047L15.1129 29.0047C15.7494 29.0047 16.2654 29.5207 16.2654 30.1572C16.2654 30.7938 15.7494 31.3098 15.1129 31.3098L11.6899 31.3098Z" fill="#FF00F5"/>
</g>
<g filter="url(#filter13_f_143_29268)">
<path fill-rule="evenodd" clip-rule="evenodd" d="M28.2678 20.5855C28.2678 19.6307 29.0418 18.8568 29.9966 18.8568H30.5112C31.466 18.8568 32.24 19.6307 32.24 20.5855V36.4778C32.24 37.2098 31.7789 37.8624 31.089 38.1071C30.3991 38.3518 29.6299 38.1354 29.1687 37.5669L21.2154 27.764C20.9265 27.408 20.7909 26.9518 20.8384 26.4957C20.8859 26.0397 21.1126 25.6212 21.4687 25.3323L21.8683 25.0081C22.6098 24.4066 23.6985 24.52 24.3 25.2614L28.2678 30.1519V20.5855ZM22.9575 26.3506L22.5579 26.6748L30.5112 36.4778V20.5855H29.9966V35.0266L22.9575 26.3506Z" fill="#FF00F5"/>
</g>
<g filter="url(#filter14_f_143_29268)">
<path fill-rule="evenodd" clip-rule="evenodd" d="M30.2229 11.0178C30.3821 11.0178 30.5111 11.1468 30.5111 11.3059V14.7289C30.5111 14.888 30.3821 15.017 30.2229 15.017C30.0638 15.017 29.9348 14.888 29.9348 14.7289V11.3059C29.9348 11.1468 30.0638 11.0178 30.2229 11.0178Z" fill="white"/>
</g>
<g filter="url(#filter15_f_143_29268)">
<path fill-rule="evenodd" clip-rule="evenodd" d="M30.223 10.7296C30.5412 10.7296 30.7992 10.9876 30.7992 11.3059V14.7289C30.7992 15.0471 30.5412 15.3051 30.223 15.3051C29.9047 15.3051 29.6467 15.0471 29.6467 14.7289V11.3059C29.6467 10.9876 29.9047 10.7296 30.223 10.7296ZM30.5111 11.3059C30.5111 11.1467 30.3821 11.0177 30.223 11.0177C30.0639 11.0177 29.9349 11.1467 29.9349 11.3059V14.7289C29.9349 14.888 30.0639 15.017 30.223 15.017C30.3821 15.017 30.5111 14.888 30.5111 14.7289V11.3059Z" fill="#FF72F9"/>
</g>
<g filter="url(#filter16_f_143_29268)">
<path fill-rule="evenodd" clip-rule="evenodd" d="M30.2229 49.2968C30.3821 49.2968 30.5111 49.1678 30.5111 49.0086V45.5856C30.5111 45.4265 30.3821 45.2975 30.2229 45.2975C30.0638 45.2975 29.9348 45.4265 29.9348 45.5856V49.0086C29.9348 49.1678 30.0638 49.2968 30.2229 49.2968Z" fill="white"/>
</g>
<g filter="url(#filter17_f_143_29268)">
<path fill-rule="evenodd" clip-rule="evenodd" d="M30.223 49.5848C30.5412 49.5848 30.7992 49.3268 30.7992 49.0086V45.5856C30.7992 45.2673 30.5412 45.0093 30.223 45.0093C29.9047 45.0093 29.6467 45.2673 29.6467 45.5856V49.0086C29.6467 49.3268 29.9047 49.5848 30.223 49.5848ZM30.5111 49.0086C30.5111 49.1677 30.3821 49.2967 30.223 49.2967C30.0639 49.2967 29.9349 49.1677 29.9349 49.0086V45.5856C29.9349 45.4265 30.0639 45.2975 30.223 45.2975C30.3821 45.2975 30.5111 45.4265 30.5111 45.5856V49.0086Z" fill="#FF72F9"/>
</g>
<g filter="url(#filter18_f_143_29268)">
<path fill-rule="evenodd" clip-rule="evenodd" d="M43.0326 16.8129C43.1451 16.9254 43.1451 17.1078 43.0326 17.2203L41.5236 18.7294C41.411 18.8419 41.2286 18.8419 41.1161 18.7294C41.0036 18.6169 41.0036 18.4344 41.1161 18.3219L42.6251 16.8129C42.7376 16.7003 42.9201 16.7003 43.0326 16.8129Z" fill="white"/>
</g>
<g filter="url(#filter19_f_143_29268)">
<path fill-rule="evenodd" clip-rule="evenodd" d="M43.2363 16.6091C43.4614 16.8342 43.4614 17.199 43.2363 17.4241L41.7273 18.9331C41.5023 19.1582 41.1374 19.1582 40.9123 18.9331C40.6873 18.7081 40.6873 18.3432 40.9123 18.1182L42.4214 16.6091C42.6464 16.3841 43.0113 16.3841 43.2363 16.6091ZM43.0326 17.2203C43.1451 17.1078 43.1451 16.9254 43.0326 16.8129C42.9201 16.7003 42.7376 16.7003 42.6251 16.8129L41.1161 18.3219C41.0036 18.4344 41.0036 18.6169 41.1161 18.7294C41.2286 18.8419 41.411 18.8419 41.5236 18.7294L43.0326 17.2203Z" fill="#FF72F9"/>
</g>
<g filter="url(#filter20_f_143_29268)">
<path fill-rule="evenodd" clip-rule="evenodd" d="M43.0326 43.5016C43.1451 43.3891 43.1451 43.2066 43.0326 43.0941L41.5236 41.5851C41.411 41.4726 41.2286 41.4726 41.1161 41.5851C41.0036 41.6976 41.0036 41.88 41.1161 41.9925L42.6251 43.5016C42.7376 43.6141 42.9201 43.6141 43.0326 43.5016Z" fill="white"/>
</g>
<g filter="url(#filter21_f_143_29268)">
<path fill-rule="evenodd" clip-rule="evenodd" d="M43.2363 43.7053C43.4614 43.4803 43.4614 43.1154 43.2363 42.8904L41.7273 41.3813C41.5023 41.1563 41.1374 41.1563 40.9123 41.3813C40.6873 41.6064 40.6873 41.9712 40.9123 42.1963L42.4214 43.7053C42.6464 43.9304 43.0113 43.9304 43.2363 43.7053ZM43.0326 43.0941C43.1451 43.2066 43.1451 43.3891 43.0326 43.5016C42.9201 43.6141 42.7376 43.6141 42.6251 43.5016L41.1161 41.9925C41.0036 41.88 41.0036 41.6976 41.1161 41.5851C41.2286 41.4726 41.411 41.4726 41.5236 41.5851L43.0326 43.0941Z" fill="#FF72F9"/>
</g>
<g filter="url(#filter22_f_143_29268)">
<path fill-rule="evenodd" clip-rule="evenodd" d="M48.5981 30.3145C48.5981 30.1554 48.4691 30.0264 48.31 30.0264L44.887 30.0264C44.7279 30.0264 44.5989 30.1554 44.5989 30.3145C44.5989 30.4737 44.7279 30.6027 44.887 30.6027L48.31 30.6027C48.4691 30.6027 48.5981 30.4737 48.5981 30.3145Z" fill="white"/>
</g>
<g filter="url(#filter23_f_143_29268)">
<path fill-rule="evenodd" clip-rule="evenodd" d="M48.8862 30.3146C48.8862 29.9963 48.6282 29.7383 48.31 29.7383L44.887 29.7383C44.5687 29.7383 44.3107 29.9963 44.3107 30.3146C44.3107 30.6328 44.5687 30.8908 44.887 30.8908L48.31 30.8908C48.6282 30.8908 48.8862 30.6328 48.8862 30.3146ZM48.31 30.0264C48.4691 30.0264 48.5981 30.1554 48.5981 30.3146C48.5981 30.4737 48.4691 30.6027 48.31 30.6027L44.887 30.6027C44.7278 30.6027 44.5988 30.4737 44.5988 30.3146C44.5988 30.1554 44.7278 30.0264 44.887 30.0264L48.31 30.0264Z" fill="#FF72F9"/>
</g>
<g filter="url(#filter24_f_143_29268)">
<path fill-rule="evenodd" clip-rule="evenodd" d="M16.9672 16.8129C16.8546 16.9254 16.8546 17.1078 16.9672 17.2203L18.4762 18.7294C18.5887 18.8419 18.7712 18.8419 18.8837 18.7294C18.9962 18.6169 18.9962 18.4344 18.8837 18.3219L17.3746 16.8129C17.2621 16.7003 17.0797 16.7003 16.9672 16.8129Z" fill="white"/>
</g>
<g filter="url(#filter25_f_143_29268)">
<path fill-rule="evenodd" clip-rule="evenodd" d="M16.7634 16.6091C16.5384 16.8342 16.5384 17.199 16.7634 17.4241L18.2725 18.9331C18.4975 19.1582 18.8624 19.1582 19.0874 18.9331C19.3124 18.7081 19.3124 18.3432 19.0874 18.1182L17.5784 16.6091C17.3533 16.3841 16.9885 16.3841 16.7634 16.6091ZM16.9672 17.2203C16.8546 17.1078 16.8546 16.9254 16.9672 16.8129C17.0797 16.7003 17.2621 16.7003 17.3746 16.8129L18.8837 18.3219C18.9962 18.4344 18.9962 18.6169 18.8837 18.7294C18.7712 18.8419 18.5887 18.8419 18.4762 18.7294L16.9672 17.2203Z" fill="#FF72F9"/>
</g>
<g filter="url(#filter26_f_143_29268)">
<path fill-rule="evenodd" clip-rule="evenodd" d="M16.9672 43.5016C16.8546 43.3891 16.8546 43.2066 16.9672 43.0941L18.4762 41.5851C18.5887 41.4726 18.7712 41.4726 18.8837 41.5851C18.9962 41.6976 18.9962 41.88 18.8837 41.9925L17.3746 43.5016C17.2621 43.6141 17.0797 43.6141 16.9672 43.5016Z" fill="white"/>
</g>
<g filter="url(#filter27_f_143_29268)">
<path fill-rule="evenodd" clip-rule="evenodd" d="M16.7634 43.7053C16.5384 43.4803 16.5384 43.1154 16.7634 42.8904L18.2725 41.3813C18.4975 41.1563 18.8624 41.1563 19.0874 41.3813C19.3124 41.6064 19.3124 41.9712 19.0874 42.1963L17.5784 43.7053C17.3533 43.9304 16.9885 43.9304 16.7634 43.7053ZM16.9672 43.0941C16.8546 43.2066 16.8546 43.3891 16.9672 43.5016C17.0797 43.6141 17.2621 43.6141 17.3746 43.5016L18.8837 41.9925C18.9962 41.88 18.9962 41.6976 18.8837 41.5851C18.7712 41.4726 18.5887 41.4726 18.4762 41.5851L16.9672 43.0941Z" fill="#FF72F9"/>
</g>
<g filter="url(#filter28_f_143_29268)">
<path fill-rule="evenodd" clip-rule="evenodd" d="M11.4016 30.3145C11.4016 30.1554 11.5306 30.0264 11.6897 30.0264L15.1127 30.0264C15.2719 30.0264 15.4009 30.1554 15.4009 30.3145C15.4009 30.4737 15.2719 30.6027 15.1127 30.6027L11.6897 30.6027C11.5306 30.6027 11.4016 30.4737 11.4016 30.3145Z" fill="white"/>
</g>
<g filter="url(#filter29_f_143_29268)">
<path fill-rule="evenodd" clip-rule="evenodd" d="M11.1135 30.3146C11.1135 29.9963 11.3715 29.7383 11.6898 29.7383L15.1128 29.7383C15.431 29.7383 15.689 29.9963 15.689 30.3146C15.689 30.6328 15.431 30.8908 15.1128 30.8908L11.6898 30.8908C11.3715 30.8908 11.1135 30.6328 11.1135 30.3146ZM11.6898 30.0264C11.5307 30.0264 11.4017 30.1554 11.4017 30.3146C11.4017 30.4737 11.5307 30.6027 11.6898 30.6027L15.1128 30.6027C15.2719 30.6027 15.4009 30.4737 15.4009 30.3146C15.4009 30.1554 15.2719 30.0264 15.1128 30.0264L11.6898 30.0264Z" fill="#FF72F9"/>
</g>
<g filter="url(#filter30_f_143_29268)">
<path fill-rule="evenodd" clip-rule="evenodd" d="M29.6892 34.648C29.7918 34.7745 29.9963 34.7019 29.9963 34.5391V20.7584C29.9963 20.6629 30.0737 20.5855 30.1692 20.5855H30.3381C30.4336 20.5855 30.511 20.6629 30.511 20.7584V35.9903C30.511 36.1531 30.3064 36.2256 30.2038 36.0992L22.6666 26.8091C22.6064 26.7349 22.6177 26.6261 22.6919 26.5659L22.823 26.4595C22.8972 26.3993 23.0061 26.4107 23.0662 26.4848L29.6892 34.648Z" fill="white"/>
</g>
<g filter="url(#filter31_f_143_29268)">
<path fill-rule="evenodd" clip-rule="evenodd" d="M29.5354 33.7267V20.7584C29.5354 20.4083 29.8192 20.1245 30.1693 20.1245H30.3382C30.6883 20.1245 30.9721 20.4083 30.9721 20.7584V35.9903C30.9721 36.5873 30.2221 36.8533 29.8459 36.3897L22.3086 27.0995C22.0881 26.8277 22.1297 26.4285 22.4015 26.2079L22.5327 26.1015C22.8045 25.8809 23.2037 25.9225 23.4243 26.1944L29.5354 33.7267ZM29.9964 34.5391C29.9964 34.7019 29.7919 34.7745 29.6893 34.648L23.0663 26.4848C23.0061 26.4107 22.8973 26.3994 22.8231 26.4595L22.692 26.5659C22.6178 26.6261 22.6065 26.7349 22.6666 26.8091L30.2039 36.0992C30.3065 36.2257 30.511 36.1531 30.511 35.9903V20.7584C30.511 20.6629 30.4336 20.5855 30.3382 20.5855H30.1693C30.0738 20.5855 29.9964 20.6629 29.9964 20.7584V34.5391Z" fill="#FF72F9"/>
</g>
<defs>
<filter id="filter0_f_143_29268" x="0" y="0" width="60" height="60" filterUnits="userSpaceOnUse" color-interpolation-filters="sRGB">
<feFlood flood-opacity="0" result="BackgroundImageFix"/>
<feBlend mode="normal" in="SourceGraphic" in2="BackgroundImageFix" result="shape"/>
<feGaussianBlur stdDeviation="2" result="effect1_foregroundBlur_143_29268"/>
</filter>
<filter id="filter1_f_143_29268" x="0" y="0" width="60" height="60" filterUnits="userSpaceOnUse" color-interpolation-filters="sRGB">
<feFlood flood-opacity="0" result="BackgroundImageFix"/>
<feBlend mode="normal" in="SourceGraphic" in2="BackgroundImageFix" result="shape"/>
<feGaussianBlur stdDeviation="2" result="effect1_foregroundBlur_143_29268"/>
</filter>
<filter id="filter2_f_143_29268" x="5.51343" y="5.51349" width="48.9729" height="48.9729" filterUnits="userSpaceOnUse" color-interpolation-filters="sRGB">
<feFlood flood-opacity="0" result="BackgroundImageFix"/>
<feBlend mode="normal" in="SourceGraphic" in2="BackgroundImageFix" result="shape"/>
<feGaussianBlur stdDeviation="0.5" result="effect1_foregroundBlur_143_29268"/>
</filter>
<filter id="filter3_f_143_29268" x="4.93726" y="4.93726" width="50.1255" height="50.1254" filterUnits="userSpaceOnUse" color-interpolation-filters="sRGB">
<feFlood flood-opacity="0" result="BackgroundImageFix"/>
<feBlend mode="normal" in="SourceGraphic" in2="BackgroundImageFix" result="shape"/>
<feGaussianBlur stdDeviation="0.5" result="effect1_foregroundBlur_143_29268"/>
</filter>
<filter id="filter4_f_143_29268" x="12.1689" y="14.2551" width="35.532" height="35.532" filterUnits="userSpaceOnUse" color-interpolation-filters="sRGB">
<feFlood flood-opacity="0" result="BackgroundImageFix"/>
<feBlend mode="normal" in="SourceGraphic" in2="BackgroundImageFix" result="shape"/>
<feGaussianBlur stdDeviation="5" result="effect1_foregroundBlur_143_29268"/>
</filter>
<filter id="filter5_f_143_29268" x="27.0706" y="7.99609" width="6.30493" height="9.72803" filterUnits="userSpaceOnUse" color-interpolation-filters="sRGB">
<feFlood flood-opacity="0" result="BackgroundImageFix"/>
<feBlend mode="normal" in="SourceGraphic" in2="BackgroundImageFix" result="shape"/>
<feGaussianBlur stdDeviation="1" result="effect1_foregroundBlur_143_29268"/>
</filter>
<filter id="filter6_f_143_29268" x="27.0706" y="42.2758" width="6.30493" height="9.72803" filterUnits="userSpaceOnUse" color-interpolation-filters="sRGB">
<feFlood flood-opacity="0" result="BackgroundImageFix"/>
<feBlend mode="normal" in="SourceGraphic" in2="BackgroundImageFix" result="shape"/>
<feGaussianBlur stdDeviation="1" result="effect1_foregroundBlur_143_29268"/>
</filter>
<filter id="filter7_f_143_29268" x="38.1675" y="13.7068" width="7.81421" height="7.81409" filterUnits="userSpaceOnUse" color-interpolation-filters="sRGB">
<feFlood flood-opacity="0" result="BackgroundImageFix"/>
<feBlend mode="normal" in="SourceGraphic" in2="BackgroundImageFix" result="shape"/>
<feGaussianBlur stdDeviation="1" result="effect1_foregroundBlur_143_29268"/>
</filter>
<filter id="filter8_f_143_29268" x="38.1675" y="38.479" width="7.81421" height="7.81409" filterUnits="userSpaceOnUse" color-interpolation-filters="sRGB">
<feFlood flood-opacity="0" result="BackgroundImageFix"/>
<feBlend mode="normal" in="SourceGraphic" in2="BackgroundImageFix" result="shape"/>
<feGaussianBlur stdDeviation="1" result="effect1_foregroundBlur_143_29268"/>
</filter>
<filter id="filter9_f_143_29268" x="41.7346" y="27.0048" width="9.72803" height="6.30499" filterUnits="userSpaceOnUse" color-interpolation-filters="sRGB">
<feFlood flood-opacity="0" result="BackgroundImageFix"/>
<feBlend mode="normal" in="SourceGraphic" in2="BackgroundImageFix" result="shape"/>
<feGaussianBlur stdDeviation="1" result="effect1_foregroundBlur_143_29268"/>
</filter>
<filter id="filter10_f_143_29268" x="14.0183" y="13.7068" width="7.81421" height="7.81409" filterUnits="userSpaceOnUse" color-interpolation-filters="sRGB">
<feFlood flood-opacity="0" result="BackgroundImageFix"/>
<feBlend mode="normal" in="SourceGraphic" in2="BackgroundImageFix" result="shape"/>
<feGaussianBlur stdDeviation="1" result="effect1_foregroundBlur_143_29268"/>
</filter>
<filter id="filter11_f_143_29268" x="14.0183" y="38.479" width="7.81421" height="7.81409" filterUnits="userSpaceOnUse" color-interpolation-filters="sRGB">
<feFlood flood-opacity="0" result="BackgroundImageFix"/>
<feBlend mode="normal" in="SourceGraphic" in2="BackgroundImageFix" result="shape"/>
<feGaussianBlur stdDeviation="1" result="effect1_foregroundBlur_143_29268"/>
</filter>
<filter id="filter12_f_143_29268" x="8.53735" y="27.0048" width="9.72803" height="6.30499" filterUnits="userSpaceOnUse" color-interpolation-filters="sRGB">
<feFlood flood-opacity="0" result="BackgroundImageFix"/>
<feBlend mode="normal" in="SourceGraphic" in2="BackgroundImageFix" result="shape"/>
<feGaussianBlur stdDeviation="1" result="effect1_foregroundBlur_143_29268"/>
</filter>
<filter id="filter13_f_143_29268" x="17.8291" y="15.8568" width="17.4109" height="25.3499" filterUnits="userSpaceOnUse" color-interpolation-filters="sRGB">
<feFlood flood-opacity="0" result="BackgroundImageFix"/>
<feBlend mode="normal" in="SourceGraphic" in2="BackgroundImageFix" result="shape"/>
<feGaussianBlur stdDeviation="1.5" result="effect1_foregroundBlur_143_29268"/>
</filter>
<filter id="filter14_f_143_29268" x="29.6348" y="10.7178" width="1.17617" height="4.59927" filterUnits="userSpaceOnUse" color-interpolation-filters="sRGB">
<feFlood flood-opacity="0" result="BackgroundImageFix"/>
<feBlend mode="normal" in="SourceGraphic" in2="BackgroundImageFix" result="shape"/>
<feGaussianBlur stdDeviation="0.15" result="effect1_foregroundBlur_143_29268"/>
</filter>
<filter id="filter15_f_143_29268" x="29.3467" y="10.4296" width="1.75259" height="5.1755" filterUnits="userSpaceOnUse" color-interpolation-filters="sRGB">
<feFlood flood-opacity="0" result="BackgroundImageFix"/>
<feBlend mode="normal" in="SourceGraphic" in2="BackgroundImageFix" result="shape"/>
<feGaussianBlur stdDeviation="0.15" result="effect1_foregroundBlur_143_29268"/>
</filter>
<filter id="filter16_f_143_29268" x="29.6348" y="44.9975" width="1.17617" height="4.59927" filterUnits="userSpaceOnUse" color-interpolation-filters="sRGB">
<feFlood flood-opacity="0" result="BackgroundImageFix"/>
<feBlend mode="normal" in="SourceGraphic" in2="BackgroundImageFix" result="shape"/>
<feGaussianBlur stdDeviation="0.15" result="effect1_foregroundBlur_143_29268"/>
</filter>
<filter id="filter17_f_143_29268" x="29.3467" y="44.7093" width="1.75259" height="5.1755" filterUnits="userSpaceOnUse" color-interpolation-filters="sRGB">
<feFlood flood-opacity="0" result="BackgroundImageFix"/>
<feBlend mode="normal" in="SourceGraphic" in2="BackgroundImageFix" result="shape"/>
<feGaussianBlur stdDeviation="0.15" result="effect1_foregroundBlur_143_29268"/>
</filter>
<filter id="filter18_f_143_29268" x="40.7317" y="16.4285" width="2.68521" height="2.68533" filterUnits="userSpaceOnUse" color-interpolation-filters="sRGB">
<feFlood flood-opacity="0" result="BackgroundImageFix"/>
<feBlend mode="normal" in="SourceGraphic" in2="BackgroundImageFix" result="shape"/>
<feGaussianBlur stdDeviation="0.15" result="effect1_foregroundBlur_143_29268"/>
</filter>
<filter id="filter19_f_143_29268" x="40.4437" y="16.1404" width="3.26138" height="3.2615" filterUnits="userSpaceOnUse" color-interpolation-filters="sRGB">
<feFlood flood-opacity="0" result="BackgroundImageFix"/>
<feBlend mode="normal" in="SourceGraphic" in2="BackgroundImageFix" result="shape"/>
<feGaussianBlur stdDeviation="0.15" result="effect1_foregroundBlur_143_29268"/>
</filter>
<filter id="filter20_f_143_29268" x="40.7317" y="41.2007" width="2.68521" height="2.68533" filterUnits="userSpaceOnUse" color-interpolation-filters="sRGB">
<feFlood flood-opacity="0" result="BackgroundImageFix"/>
<feBlend mode="normal" in="SourceGraphic" in2="BackgroundImageFix" result="shape"/>
<feGaussianBlur stdDeviation="0.15" result="effect1_foregroundBlur_143_29268"/>
</filter>
<filter id="filter21_f_143_29268" x="40.4437" y="40.9125" width="3.26138" height="3.26156" filterUnits="userSpaceOnUse" color-interpolation-filters="sRGB">
<feFlood flood-opacity="0" result="BackgroundImageFix"/>
<feBlend mode="normal" in="SourceGraphic" in2="BackgroundImageFix" result="shape"/>
<feGaussianBlur stdDeviation="0.15" result="effect1_foregroundBlur_143_29268"/>
</filter>
<filter id="filter22_f_143_29268" x="44.2989" y="29.7264" width="4.59927" height="1.17623" filterUnits="userSpaceOnUse" color-interpolation-filters="sRGB">
<feFlood flood-opacity="0" result="BackgroundImageFix"/>
<feBlend mode="normal" in="SourceGraphic" in2="BackgroundImageFix" result="shape"/>
<feGaussianBlur stdDeviation="0.15" result="effect1_foregroundBlur_143_29268"/>
</filter>
<filter id="filter23_f_143_29268" x="44.0108" y="29.4383" width="5.17544" height="1.75253" filterUnits="userSpaceOnUse" color-interpolation-filters="sRGB">
<feFlood flood-opacity="0" result="BackgroundImageFix"/>
<feBlend mode="normal" in="SourceGraphic" in2="BackgroundImageFix" result="shape"/>
<feGaussianBlur stdDeviation="0.15" result="effect1_foregroundBlur_143_29268"/>
</filter>
<filter id="filter24_f_143_29268" x="16.5828" y="16.4285" width="2.68521" height="2.68533" filterUnits="userSpaceOnUse" color-interpolation-filters="sRGB">
<feFlood flood-opacity="0" result="BackgroundImageFix"/>
<feBlend mode="normal" in="SourceGraphic" in2="BackgroundImageFix" result="shape"/>
<feGaussianBlur stdDeviation="0.15" result="effect1_foregroundBlur_143_29268"/>
</filter>
<filter id="filter25_f_143_29268" x="16.2947" y="16.1404" width="3.26138" height="3.2615" filterUnits="userSpaceOnUse" color-interpolation-filters="sRGB">
<feFlood flood-opacity="0" result="BackgroundImageFix"/>
<feBlend mode="normal" in="SourceGraphic" in2="BackgroundImageFix" result="shape"/>
<feGaussianBlur stdDeviation="0.15" result="effect1_foregroundBlur_143_29268"/>
</filter>
<filter id="filter26_f_143_29268" x="16.5828" y="41.2007" width="2.68521" height="2.68533" filterUnits="userSpaceOnUse" color-interpolation-filters="sRGB">
<feFlood flood-opacity="0" result="BackgroundImageFix"/>
<feBlend mode="normal" in="SourceGraphic" in2="BackgroundImageFix" result="shape"/>
<feGaussianBlur stdDeviation="0.15" result="effect1_foregroundBlur_143_29268"/>
</filter>
<filter id="filter27_f_143_29268" x="16.2947" y="40.9125" width="3.26138" height="3.26156" filterUnits="userSpaceOnUse" color-interpolation-filters="sRGB">
<feFlood flood-opacity="0" result="BackgroundImageFix"/>
<feBlend mode="normal" in="SourceGraphic" in2="BackgroundImageFix" result="shape"/>
<feGaussianBlur stdDeviation="0.15" result="effect1_foregroundBlur_143_29268"/>
</filter>
<filter id="filter28_f_143_29268" x="11.1016" y="29.7264" width="4.59927" height="1.17623" filterUnits="userSpaceOnUse" color-interpolation-filters="sRGB">
<feFlood flood-opacity="0" result="BackgroundImageFix"/>
<feBlend mode="normal" in="SourceGraphic" in2="BackgroundImageFix" result="shape"/>
<feGaussianBlur stdDeviation="0.15" result="effect1_foregroundBlur_143_29268"/>
</filter>
<filter id="filter29_f_143_29268" x="10.8135" y="29.4383" width="5.17544" height="1.75253" filterUnits="userSpaceOnUse" color-interpolation-filters="sRGB">
<feFlood flood-opacity="0" result="BackgroundImageFix"/>
<feBlend mode="normal" in="SourceGraphic" in2="BackgroundImageFix" result="shape"/>
<feGaussianBlur stdDeviation="0.15" result="effect1_foregroundBlur_143_29268"/>
</filter>
<filter id="filter30_f_143_29268" x="22.1279" y="20.0855" width="8.88306" height="16.578" filterUnits="userSpaceOnUse" color-interpolation-filters="sRGB">
<feFlood flood-opacity="0" result="BackgroundImageFix"/>
<feBlend mode="normal" in="SourceGraphic" in2="BackgroundImageFix" result="shape"/>
<feGaussianBlur stdDeviation="0.25" result="effect1_foregroundBlur_143_29268"/>
</filter>
<filter id="filter31_f_143_29268" x="21.667" y="19.6245" width="9.80518" height="17.5009" filterUnits="userSpaceOnUse" color-interpolation-filters="sRGB">
<feFlood flood-opacity="0" result="BackgroundImageFix"/>
<feBlend mode="normal" in="SourceGraphic" in2="BackgroundImageFix" result="shape"/>
<feGaussianBlur stdDeviation="0.25" result="effect1_foregroundBlur_143_29268"/>
</filter>
</defs>
</svg>
