<svg width="56" height="54" viewBox="0 0 56 54" fill="none" xmlns="http://www.w3.org/2000/svg">
<path d="M22.5048 4.39545C22.1914 3.83944 19.3567 0.748092 20.1091 0.892339C21.0496 1.07265 24.4306 4.12488 24.7889 4.66587C25.5502 3.40357 30.198 -0.489808 30.4667 0.0512452C30.6816 0.484088 27.0281 4.07982 26.9386 4.66587C27.9089 3.74924 34.7238 -0.384905 36.0853 0.408488C36.8376 0.805159 32.1336 4.06482 31.9545 4.39545C32.9547 4.42548 39.6321 3.06809 39.8113 3.86154C39.8113 4.23082 37.3831 4.99818 36.5407 5.20608C38.426 4.86419 42.954 4.42409 42.954 5.04096C42.954 5.69014 39.0007 6.46916 38.717 6.42407C39.5991 6.65613 45.5814 6.92717 45.3707 7.58256C45.1781 8.18197 40.8379 8.29257 39.7742 8.13505C41.4534 8.52362 47.9796 9.58278 47.7069 10.1174C47.4433 10.6342 43.0048 10.305 42.175 10.1518C43.5567 10.5142 47.8107 11.4487 45.6018 13.1254C46.1531 13.1254 51.6826 14.0117 51.6694 14.5156C51.6589 14.9188 46.9304 14.3344 46.6142 14.5156C47.5847 15.1835 54.39 16.5426 53.976 18.031C53.7881 18.7068 48.5853 17.2226 46.5992 16.4214C48.8618 17.5117 54.2494 20.0006 54.183 20.5017C54.1079 21.0691 49.3926 19.4666 49.056 19.3326C49.878 20.034 56.1205 22.4324 55.632 23.1511C55.2179 23.7603 51.3375 23.0901 50.0219 22.7421C51.6149 23.2588 56.6606 24.7876 55.9277 25.9285C55.6551 26.353 53.1416 25.3836 51.3649 24.5987C53.538 26.1924 54.9453 29.2533 54.39 30.2655C53.9391 30.5114 50.5904 26.228 50.2772 25.9285C50.606 27.4337 54.39 32.766 53.0889 33.5102C52.3857 33.9124 49.9909 30.4207 49.4952 29.4223C50.3106 31.9668 51.7644 40.5402 49.4082 40.5949C48.7694 40.5949 47.4703 33.4209 46.9139 33.051C46.11 34.3437 49.4082 43.5591 46.4353 45.0601C45.7731 45.0601 46.6719 38.5599 45.7883 38.5599C44.6019 39.7317 44.9666 49.7755 43.0665 49.2828C42.6634 48.7611 43.5964 42.5894 42.2255 43.5591C41.41 44.1361 42.4426 50.9944 41.2046 50.7046C40.5712 50.4727 40.107 43.142 39.4576 43.142C39.086 43.7761 40.18 53.0663 39.086 52.9504C39.086 52.3708 38.3989 47.1455 38.3389 47.0006C37.4805 50.4524 35.9684 47.6122 35.191 47.5833C35.6589 48.2716 40.5626 55.6162 33.5885 48.6308C38.3389 56.3271 33.2646 51.058 29.0901 48.6308C29.45 49.464 32.2893 54.0347 31.3176 53.9984C30.346 53.9622 26.355 48.5946 26.1031 48.3772C25.8512 48.1599 28.4978 53.5404 27.594 53.4836C26.8709 53.4381 23.4665 48.7206 22.5438 48.2277C22.9643 48.6068 25.3761 54.1064 24.7889 53.9984C20.0252 53.1228 18.6836 47.6212 18.081 46.9388C17.4784 46.2564 19.9896 53.0262 19.2929 52.9504C18.6851 52.8842 15.4463 46.8416 14.5127 44.6226C15.0902 46.6356 16.3903 51.8432 15.6312 51.6484C14.6378 51.3935 10.8075 42.9508 10.8075 40.8857C10.3972 42.8132 11.081 49.0079 10.2604 48.2277C9.43981 47.4476 8.41404 40.5415 8.45963 40.0597C7.52505 40.5186 1.59838 45.3377 3.96905 41.6358C4.6713 40.5392 7.95815 37.1226 7.91256 36.6636C7.41108 37.7651 2.05787 41.3676 1.87551 40.8857C1.69315 40.4038 5.086 33.8642 5.92941 31.5696C4.97202 32.3957 2.52653 34.8867 2.45814 33.051C2.45814 31.7293 4.74407 28.2119 4.65288 28.1736C4.52371 28.5102 0.2512 31.9735 0.0141338 31.5696C-0.282199 31.0648 4.17419 25.7821 4.65289 25.4379C-0.793337 23.5628 4.47053 22.5518 5.19997 21.221C4.08302 21.3357 0.534575 22.1623 0.876493 21.4509C1.21841 20.7396 5.61029 20.0278 6.4081 19.1329C7.20592 18.238 2.69611 19.3165 1.87551 19.1329C1.05491 18.9493 8.82435 15.5304 9.09789 14.7961C9.37143 14.0618 3.10293 16.7087 3.10293 16.0203C3.10293 15.4844 7.10929 13.2053 9.47562 12.1028C7.72454 12.6366 5.19997 13.2236 5.19997 12.4861C5.19997 10.157 12.3348 9.33496 13.2693 9.19729C14.2039 9.05961 7.33896 8.68067 7.38455 8.08407C7.43014 7.48747 14.09 7.04036 14.7054 7.04036C15.3209 7.04036 10.7254 5.10677 11.4093 4.39545C12.0931 3.68412 17.8203 7.10284 17.8967 6.35198C18.4739 0.676667 16.9237 4.527 22.5048 4.39545Z" fill="#71B5DC"/>
<path d="M22.5055 2.90759C21.7531 2.76334 22.192 3.8393 22.5055 4.3953C16.9244 4.52686 18.6039 6.09943 17.8973 6.35184C17.1906 6.60424 14.706 5.04392 14.0222 5.75524C13.3383 6.46657 15.3215 7.04022 14.706 7.04022C14.0906 7.04022 12.039 8.39403 11.9934 8.99063C11.9707 9.28834 12.5213 9.30606 12.9625 9.26621C13.0743 9.23428 13.1779 9.2107 13.2699 9.19714C13.7381 9.12817 13.4054 9.2262 12.9625 9.26621C11.9387 9.55845 10.2199 10.5503 10.261 10.964C10.3066 11.4229 12.2214 11.2623 10.9677 11.5147C9.71395 11.7671 7.61683 14.2223 7.61683 14.9107C7.61683 15.5991 9.37203 14.0617 9.09849 14.796C8.82495 15.5302 4.10643 18.8115 4.92703 18.9951C5.74763 19.1786 7.20652 18.2379 6.40871 19.1328C5.61089 20.0277 3.96965 19.8441 3.62773 20.5554C3.28581 21.2667 4.08363 21.3356 5.20057 21.2208C4.54963 22.774 1.17542 24.587 5.92383 24.2058C9.06482 23.9537 4.33265 28.8771 5.92383 29.5323C7.515 30.1876 8.67226 25.7348 8.74458 26.1716C8.81691 26.6084 6.38729 32.4684 7.61683 32.9053C8.19544 30.9395 9.82947 28.5014 10.1188 28.8654C10.4081 29.2295 8.0136 33.6381 9.09849 33.6381C10.1834 33.6381 11.9269 29.3751 12.2162 30.0303C12.5055 30.6856 11.3657 33.0168 13.3041 32.9053C9.09849 39.1494 12.5841 36.4734 14.3564 35.1075C13.9964 36.6964 14.3564 39.93 16.3226 35.9995C17.7349 37.4769 18.7318 38.0344 19.3133 36.3619C19.3133 39.0379 19.9285 42.5503 21.2024 42.2994C22.4762 42.0485 21.2517 36.9751 21.7225 36.9751C22.1933 36.9751 22.4979 38.2574 22.9963 37.6163C23.4948 36.9751 23.301 35.8322 23.6333 35.9995C23.9656 36.1667 24.6579 40.2366 25.8209 39.93C26.3478 39.7911 26.5325 39.6099 26.5601 39.4501C26.4913 39.3469 26.4497 39.2417 26.4302 39.1494C26.5102 39.218 26.5813 39.3278 26.5601 39.4501C26.8171 39.8355 27.453 40.1922 28.7286 39.7348C28.7286 41.1286 28.064 43.615 28.7286 43.392C29.2603 43.2136 30.824 40.3388 31.1101 39.93C31.1378 40.7848 31.5137 44.8419 32.2226 44.6858C32.9315 44.5297 32.9286 41.045 32.9101 40.5153C33.5747 40.9149 36.8688 43.2583 37.6663 42.2994C38.3014 41.5358 36.4522 38.7843 36.2566 38.1591C36.1904 38.0185 36.1364 37.8815 36.0947 37.7556C36.1492 37.8616 36.2066 37.9991 36.2566 38.1591C36.7033 39.1079 35.7936 37.0678 37.2601 35.9995C38.2458 35.2814 40.4793 37.882 40.5128 37.5071C40.4034 37.3197 40.3244 37.1305 40.2762 36.9751C40.4139 37.0637 40.5364 37.2417 40.5128 37.5071C40.8219 38.0372 41.601 40.8119 42.3865 40.5153C43.4499 40.1139 43.4146 35.953 43.3777 35.0517C43.5069 35.5999 43.9814 38.0647 44.8454 37.5071C45.9254 36.8103 44.8454 32.6265 44.8454 31.9854C44.8454 31.3442 45.5931 32.6265 45.953 31.7345C46.0914 31.3916 46.1245 31.0821 46.1083 30.8315C46.0459 30.6258 45.9934 30.4281 45.953 30.2571C46.0154 30.3584 46.0907 30.5606 46.1083 30.8315C46.3881 31.7551 46.8666 32.8412 47.3377 32.4035C47.9136 31.8683 47.7623 30.1177 47.6146 29.3093C48.0853 29.5695 49.0712 29.9783 49.2484 29.5323C49.4699 28.9748 48.9438 27.3859 48.9438 27.0514C48.9438 26.7169 49.9684 28.696 50.0515 28.0549C50.1179 27.542 49.9869 26.5403 49.913 26.1036L50.2778 25.9284C50.591 26.2279 51.33 26.7653 51.7809 26.5194C52.4019 25.3875 50.9827 24.3725 49.9473 23.8823C49.6777 23.9078 49.5967 23.8083 49.5967 23.7297C49.7054 23.7726 49.8236 23.8237 49.9473 23.8823C50.0833 23.8695 50.2671 23.8248 50.5127 23.7297C51.0866 23.5076 50.5742 23.0968 50.0317 22.8043C49.8481 22.7743 49.6926 22.6819 49.5967 22.595C49.7291 22.6513 49.8816 22.7233 50.0317 22.8043C50.2977 22.8477 50.6229 22.7601 50.9119 22.3349C51.4004 21.6162 49.8786 20.0338 49.0566 19.3325C49.3932 19.4664 50.0852 19.5925 50.1604 19.0251C50.207 18.6735 49.1136 17.9104 47.9287 17.2026C47.219 17.0549 46.3467 16.4555 45.886 16.0699C46.4398 16.3547 47.2015 16.7682 47.9287 17.2026C48.22 17.2632 48.484 17.2478 48.6808 17.1102C49.3572 16.6373 47.5853 15.1834 46.6148 14.5155C46.931 14.3343 47.566 13.871 47.5766 13.4678C47.5897 12.9638 46.1537 13.1253 45.6024 13.1253C45.6776 11.6615 43.6644 10.6409 42.3865 10.2201C42.2483 10.2223 42.1249 10.1711 42.0475 10.1173C42.1524 10.1462 42.2662 10.1805 42.3865 10.2201C42.5728 10.2171 42.7859 10.1171 42.95 9.79556C43.1776 9.34944 41.6887 8.7422 40.4434 8.34311C40.1317 8.33233 39.7868 8.2 39.5686 8.08393C39.8224 8.15259 40.1249 8.24104 40.4434 8.34311C40.7356 8.35322 40.9986 8.25649 41.1005 7.93935C41.3111 7.28395 39.5997 6.65599 38.7176 6.42393C39.0013 6.46901 39.5686 6.39688 39.5686 5.7477C39.5686 5.14544 36.6905 5.55717 34.9395 5.8958C34.8099 5.96524 34.6558 5.98053 34.5526 5.97311C34.6735 5.94813 34.8031 5.92219 34.9395 5.8958C35.0724 5.82457 35.1796 5.69636 35.1796 5.47721C35.0005 4.68376 32.9553 4.42534 31.9551 4.3953C32.1342 4.06468 32.3044 3.30426 31.552 2.90759C30.1906 2.1142 27.9095 3.7491 26.9392 4.66573C27.0287 4.07968 27.1541 2.79938 26.9392 2.36654C26.6705 1.82548 25.5508 3.40343 24.7895 4.66573C24.4312 4.12474 23.4459 3.0879 22.5055 2.90759Z" fill="#91D2EF"/>
<path d="M22.6863 2.90759C21.934 2.76334 22.3729 3.8393 22.6863 4.3953C17.1052 4.52686 18.7848 6.09943 18.0782 6.35184C17.3715 6.60424 14.8869 5.04392 14.2031 5.75524C13.5192 6.46657 15.5024 7.04022 14.8869 7.04022C14.2714 7.04022 12.2199 8.39403 12.1743 8.99063C12.1516 9.28834 12.7022 9.30606 13.1434 9.26621C13.2552 9.23428 13.3588 9.2107 13.4508 9.19714C13.919 9.12817 13.5863 9.2262 13.1434 9.26621C12.1196 9.55845 10.4008 10.5503 10.4419 10.964C10.4875 11.4229 12.4023 11.2623 11.1486 11.5147L10.9108 11.4644C11.1055 11.7359 11.6928 12.1974 12.4837 11.8716C10.3715 13.5907 5.97919 17.2026 13.1129 15.0384C12.0343 17.1737 8.98952 19.698 9.22921 20.6933L13.1129 19.4266C13.0679 20.0901 10.5153 24.5387 10.9108 24.5387C11.3063 24.5387 14.2664 20.9346 14.4162 20.6933C14.1615 22.3672 13.4454 28.6554 14.4162 28.4745C15.3869 28.2935 16.079 23.7847 16.079 23.0457C16.1389 24.4029 16.41 29.6417 17.2729 29.4245C18.1358 29.2074 18.6257 25.2172 18.7306 24.5387C18.5358 28.2181 18.8834 35.4414 21.8315 34.8985C23.1618 34.6452 23.4644 32.7421 23.4494 31.8222C23.8539 31.9881 24.6718 31.9579 24.7078 30.5103C25.5167 32.5913 25.8762 33.3151 27.3144 32.8627C28.4649 32.5008 28.6027 30.4198 28.5278 29.4245C28.7225 30.0277 29.2289 31.1617 29.6963 30.8722C30.1636 30.5826 30.1906 29.7864 30.1457 29.4245C30.7299 31.0984 31.1653 37.1664 32.136 36.2616C32.5277 35.8147 33.4447 32.3148 33.2971 31.9182C33.2235 31.7834 33.1607 31.6574 33.1118 31.5508C33.1733 31.6416 33.2415 31.7687 33.2971 31.9182C33.6298 32.5268 34.9933 35.6891 35.4937 35.6891C36.2577 35.6891 35.5836 31.2341 35.4937 30.8722C35.4038 30.5103 37.9205 33.8966 40.1676 33.399C41.9653 33.0009 40.5121 29.5904 40.1676 28.4745C40.5271 29.2285 41.426 30.6369 42.145 30.2388C42.8641 29.8407 42.5944 28.1126 42.3697 27.2983C43.0588 28.0673 46.4504 30.1122 46.9537 29.4245C47.5829 28.565 45.1561 25.2625 44.5719 24.5387C48.8617 26.2016 47.1335 24.0863 46.0999 21.9148C47.9874 22.2767 48.2121 20.7838 46.9537 19.4266C48.302 19.1552 47.7627 17.2099 45.8302 16.3051L46.0669 16.0699C46.6207 16.3547 47.3824 16.7682 48.1096 17.2026C48.4009 17.2632 48.6649 17.2478 48.8617 17.1102C49.5381 16.6373 47.7662 15.1834 46.7957 14.5155C47.1119 14.3343 47.7469 13.871 47.7575 13.4678C47.7706 12.9638 46.3346 13.1253 45.7833 13.1253C45.8585 11.6615 43.8452 10.6409 42.5674 10.2201C42.4292 10.2223 42.3058 10.1711 42.2284 10.1173C42.3333 10.1462 42.4471 10.1805 42.5674 10.2201C42.7536 10.2171 42.9668 10.1171 43.1309 9.79556C43.3585 9.34944 41.8695 8.7422 40.6243 8.34311C40.3126 8.33233 39.9677 8.2 39.7495 8.08393C40.0033 8.15259 40.3058 8.24104 40.6243 8.34311C40.9165 8.35322 41.1794 8.25649 41.2814 7.93935C41.492 7.28395 39.7806 6.65599 38.8985 6.42393C39.1822 6.46901 39.7495 6.39688 39.7495 5.7477C39.7495 5.14544 36.8714 5.55717 35.1204 5.8958C34.9908 5.96524 34.8367 5.98053 34.7335 5.97311C34.8544 5.94813 34.984 5.92219 35.1204 5.8958C35.2533 5.82457 35.3605 5.69636 35.3605 5.47721C35.1814 4.68376 33.1362 4.42534 32.136 4.3953C32.3151 4.06468 32.4853 3.30426 31.7329 2.90759C30.3715 2.1142 28.0904 3.7491 27.1201 4.66573C27.2096 4.07968 27.335 2.79938 27.1201 2.36654C26.8514 1.82548 25.7317 3.40343 24.9704 4.66573C24.6121 4.12474 23.6268 3.0879 22.6863 2.90759Z" fill="#ACEBF8"/>
<path d="M28.0956 8.95957C28.3531 8.25268 29.5283 6.95202 32.1686 7.40444C34.8089 7.85686 32.941 9.10095 31.677 9.66645C33.69 9.31301 37.6739 9.05854 37.5053 10.8681C37.3368 12.6777 34.2518 12.6118 32.7303 12.3526C35.2114 12.8002 39.9491 14.3884 39.0502 17.1593C38.1514 19.9302 34.7433 18.738 33.1516 17.7955C35.2583 20.3167 38.2918 25.26 33.5729 24.8642C28.8541 24.4683 27.4403 19.9868 27.3232 17.7955C26.8083 19.2799 25.8487 22.6729 26.1295 24.3694C26.4806 26.49 20.3012 24.1573 22.8994 17.1593C23.021 16.8533 23.2133 16.5319 23.4281 16.2285C22.4251 17.2207 21.1576 18.0298 20.3715 17.1593C19.248 15.9152 22.0568 13.4364 23.6017 12.3526C22.2442 12.4939 19.4447 12.8898 19.1077 13.3422C18.6863 13.9077 17.3521 9.87851 24.5146 10.3733C23.2511 9.89151 22.0007 10.3733 21.5595 9.66645C21.1182 8.95957 26.0632 7.051 28.0956 8.95957Z" fill="#E1FDFF"/>
</svg>
