<svg width="54" height="52" viewBox="0 0 54 52" fill="none" xmlns="http://www.w3.org/2000/svg">
<path d="M53.6907 42.3754L42.3689 51.358V7.58537L53.6907 1.88208V42.3754Z" fill="#00BB34"/>
<path fill-rule="evenodd" clip-rule="evenodd" d="M53.9999 1.37787V42.5266L42.0596 52V7.39277L53.9999 1.37787ZM42.6781 7.77793V50.716L53.3813 42.2241V2.38625L42.6781 7.77793Z" fill="white"/>
<path d="M13.3571 0.31366L53.8323 1.59689L42.2275 7.58533L0.195557 6.15951L13.3571 0.31366Z" fill="#55FF84"/>
<path fill-rule="evenodd" clip-rule="evenodd" d="M13.2966 0L53.842 1.28546L53.9733 1.87426L42.2972 7.89949L0.185159 6.47095L0.0708008 5.8744L13.2966 0ZM13.4176 0.627357L1.56003 5.89403L42.1578 7.2712L52.6239 1.87036L13.4176 0.627357Z" fill="white"/>
<path d="M0 6.0683L42.369 7.44278V51.6432L0 49.2193V6.0683Z" fill="#E6FFE7"/>
<path fill-rule="evenodd" clip-rule="evenodd" d="M0 6.0683V49.2193L42.369 51.6432V7.44278L0 6.0683ZM0.618578 6.7119V48.6305L41.7504 50.9836V8.04625L0.618578 6.7119Z" fill="white"/>
<path d="M8.86558 21.7647C9.2018 21.7647 9.48359 22.0535 9.48359 22.3922V37.8513C9.48359 38.8185 9.12709 39.3429 8.73345 39.3266C8.3382 39.2929 8.094 39.0385 7.79445 38.276C7.4188 37.3432 6.79918 37.0726 6.03174 37.0393C5.39229 37.0068 4.37879 37.5144 4.22706 38.3764C4.07786 39.2395 4.30316 40.206 5.73126 40.7484C7.64294 41.4601 9.33393 40.2745 9.33393 40.2745L13.4808 37.4629C13.4808 37.4629 14.4941 36.8872 14.926 36.2257C15.4702 35.4293 15.4534 34.4326 15.4534 34.4326V22.3922C15.4534 22.0377 15.7326 21.7647 16.0697 21.7647H16.5948C17.3109 21.7647 17.5719 21.2747 17.6272 21.071C17.7232 20.749 17.9104 20.5459 18.4546 20.5459H20.1991C20.7265 20.5459 21.1589 20.7666 21.1589 21.5126V36.3981C21.1589 36.3981 21.1771 36.8697 21.4563 37.0726C21.8343 37.3432 22.2655 37.1748 22.4528 37.0393C22.6794 36.8872 26.4129 34.4484 26.4129 34.4484C26.9188 34.1097 26.9188 33.4831 26.9188 33.4831V21.3084C26.9188 20.8658 27.2947 20.5459 27.7264 20.5459H31.2737C31.2737 20.5459 31.3101 20.5459 31.3673 20.5285L31.4054 20.4611V18.6332L31.3673 18.5635L31.2938 18.5488H18.2107C17.5345 18.5488 17.1972 19.0885 17.1427 19.2918C17.0473 19.6152 16.7849 19.8512 16.334 19.8512H8.00084C7.47483 19.8512 7.04476 20.2762 7.04476 20.8003C7.04476 21.3407 7.47483 21.7647 8.00084 21.7647H8.86558Z" fill="#26B481"/>
<path d="M37.2799 15.3643C37.7858 15.3643 38.181 15.7883 38.181 16.3282C38.181 16.8546 37.7858 17.2768 37.2799 17.2768H33.9211H32.8512C32.3438 17.2768 31.9497 16.8546 31.9497 16.3129C31.9497 15.7883 32.3438 15.3643 32.8512 15.3643H37.2799Z" fill="#26B481"/>
<path d="M32.1929 18.5488V32.991C32.1929 32.991 32.2286 33.4494 32.4938 33.6516C32.8683 33.9408 33.3011 33.7542 33.4902 33.6376C33.7123 33.4831 37.448 31.0453 37.448 31.0453C37.9553 30.707 37.9553 30.0795 37.9553 30.0795V18.5488H32.1929Z" fill="#26B481"/>
</svg>
