<svg width="36" height="62" viewBox="0 0 36 62" fill="none" xmlns="http://www.w3.org/2000/svg">
<path fill-rule="evenodd" clip-rule="evenodd" d="M21.2028 1.79935C18.4357 0.425295 16.3415 2.52244 15.4374 4.06551C11.9415 6.26631 8.67974 9.96652 6.2989 14.664C5.08819 15.5103 3.74594 16.6156 3.60243 17.3432C3.40153 18.3617 3.64989 18.9863 3.79918 19.1713C3.25176 19.3228 2.06595 19.9656 1.70218 21.3254C1.3384 22.6852 2.18168 23.8057 2.64879 24.196C2.13076 24.5347 1.06816 25.3017 1.20491 26.3679C1.31285 27.2094 1.88262 28.6848 2.56516 30.4523L2.65096 30.6745C2.85705 35.2747 4.25143 39.2438 6.65691 41.8244C8.02078 43.901 7.98492 47.3298 6.71279 49.7953C6.49634 50.2148 6.17885 50.7562 5.81471 51.3772C3.82237 54.7747 0.433576 60.5536 4.55752 61.7755C8.69592 63.0017 9.499 59.0432 10.5534 53.846C10.7418 52.9176 10.9381 51.9497 11.163 50.9647C11.8855 48.782 13.3625 45.5526 15.9925 44.7117C19.7627 43.9198 23.596 41.2098 26.734 37.1705C27.8539 36.2848 29.0378 35.4694 30.0939 34.742L30.094 34.7419L30.094 34.7419L30.094 34.7419C31.5718 33.7241 32.799 32.8789 33.2497 32.2549C33.882 31.3794 33.3141 30.2081 33.0203 29.668C33.6192 29.5421 34.9 28.9483 35.2323 27.5808C35.5645 26.2132 34.8285 25.0937 34.4189 24.705C34.6393 24.6116 35.2497 23.8219 35.3516 22.7892C35.4527 21.7635 34.3767 19.838 33.5783 18.4918C33.7387 14.7225 33.1456 11.2637 31.8852 8.48361C31.9781 7.88447 32.0276 6.51198 31.875 5.72935C31.6578 4.61489 29.7925 3.46589 28.4576 3.8343C28.3968 2.92132 27.9145 1.04814 26.0013 0.254892C24.0882 -0.538361 22.2726 0.672229 21.2028 1.79935Z" fill="#EAAA00"/>
<path fill-rule="evenodd" clip-rule="evenodd" d="M15.7083 4.32083L15.6334 4.36797C12.2033 6.52732 8.98202 10.1731 6.62457 14.8244L6.58384 14.9047L6.50949 14.9567C5.91111 15.375 5.28843 15.8517 4.8013 16.3082C4.55759 16.5366 4.35451 16.7537 4.20644 16.9504C4.05426 17.1527 3.98045 17.307 3.9598 17.4117C3.77237 18.3618 4.02061 18.8692 4.08411 18.9479L4.42536 19.3708L3.89756 19.5168C3.42801 19.6467 2.37441 20.22 2.0542 21.4169C1.74103 22.5875 2.47118 23.5771 2.88418 23.9222L3.25377 24.231L2.85005 24.495C2.59756 24.6601 2.23846 24.9135 1.95997 25.2401C1.68227 25.5657 1.51528 25.9267 1.5661 26.3229C1.61497 26.7039 1.77312 27.2527 2.01402 27.9467C2.25284 28.6347 2.56346 29.4391 2.90541 30.3246L3.01208 30.6009L3.01466 30.6587C3.21833 35.2046 4.59529 39.0823 6.92499 41.5816L6.94579 41.6039L6.96251 41.6294C7.69241 42.7407 8.03482 44.1899 8.03741 45.6634C8.04001 47.1392 7.70204 48.6696 7.03729 49.958C6.81641 50.3861 6.49505 50.9341 6.13491 51.5483L6.12991 51.5568C5.12742 53.2663 3.80872 55.5195 3.24281 57.49C2.95945 58.4766 2.881 59.3408 3.08298 60.0109C3.27562 60.65 3.73643 61.1575 4.66232 61.4318C5.64275 61.7223 6.37739 61.6921 6.9506 61.454C7.52553 61.2151 7.99411 60.7439 8.39482 60.0433C9.2094 58.619 9.66429 56.3985 10.1964 53.7757L10.1967 53.7739C10.3849 52.8466 10.582 51.8751 10.8078 50.8859L10.8116 50.8694L10.8169 50.8533C11.1832 49.7467 11.745 48.3606 12.558 47.1383C13.3686 45.9195 14.4538 44.8264 15.8802 44.3703L15.8982 44.3646L15.9167 44.3607C19.5758 43.5921 23.3407 40.9482 26.445 36.9523L26.4718 36.9178L26.5062 36.8906C27.6324 35.9998 28.8212 35.1807 29.8728 34.4565L29.8826 34.4485L29.8959 34.4406C30.6329 33.933 31.2976 33.4749 31.8347 33.0666C32.3824 32.6502 32.7623 32.311 32.9531 32.0468C33.1881 31.7215 33.2142 31.3255 33.1259 30.9092C33.0373 30.4916 32.8426 30.1008 32.6995 29.8376L32.4705 29.4167L32.9444 29.3171C33.4739 29.2057 34.5921 28.6745 34.8782 27.4972C35.1707 26.2934 34.5177 25.2969 34.1664 24.9635L33.7715 24.5886L34.2676 24.3784C34.2668 24.3788 34.2663 24.3789 34.2662 24.3788C34.2655 24.3776 34.3006 24.3542 34.3669 24.2779C34.4393 24.1946 34.5261 24.0747 34.6123 23.9234C34.7852 23.6204 34.944 23.2125 34.9892 22.7545C35.0081 22.5623 34.9729 22.2993 34.8791 21.9719C34.7866 21.6493 34.6443 21.288 34.4704 20.9083C34.1226 20.1487 33.6623 19.3444 33.264 18.6729L33.2101 18.5819L33.2146 18.4767C33.3731 14.7509 32.7857 11.3494 31.5529 8.63003L31.5092 8.53371L31.5254 8.42942C31.5683 8.15249 31.6033 7.67787 31.6081 7.17193C31.6129 6.6638 31.5869 6.15317 31.5175 5.79707C31.4373 5.38558 31.02 4.89187 30.4017 4.53557C29.7907 4.18351 29.0946 4.03117 28.5557 4.17988L28.1236 4.29912L28.0943 3.85778C28.0372 2.99952 27.5849 1.30082 25.8602 0.585688C24.1763 -0.112528 22.5209 0.935918 21.4686 2.04454L21.2824 2.24073L21.039 2.11985C19.775 1.49219 18.6883 1.65812 17.8001 2.1512C16.893 2.6548 16.1847 3.50766 15.7527 4.24499L15.7083 4.32083ZM30.094 34.7419C29.0379 35.4693 27.8539 36.2848 26.734 37.1705C23.596 41.2098 19.7627 43.9198 15.9925 44.7117C13.3625 45.5526 11.8855 48.782 11.163 50.9647C10.9381 51.9497 10.7418 52.9176 10.5534 53.846C9.499 59.0432 8.69592 63.0017 4.55752 61.7755C0.433576 60.5536 3.82237 54.7747 5.81471 51.3772C6.17885 50.7562 6.49634 50.2148 6.71279 49.7953C7.98492 47.3298 8.02078 43.901 6.65691 41.8244C4.25143 39.2438 2.85705 35.2747 2.65096 30.6745L2.56516 30.4523C1.88262 28.6848 1.31285 27.2094 1.20491 26.3679C1.09165 25.4848 1.8011 24.807 2.34248 24.4078C2.45476 24.325 2.55981 24.2541 2.64879 24.196C2.56964 24.1298 2.47969 24.0427 2.38665 23.9371C1.93056 23.4191 1.40004 22.4548 1.70218 21.3254C2.00033 20.2109 2.85068 19.578 3.44918 19.3026C3.5809 19.2419 3.70043 19.1986 3.79918 19.1713C3.74972 19.11 3.68937 19.0004 3.6381 18.8443C3.53463 18.5291 3.4681 18.0242 3.60243 17.3432C3.74594 16.6156 5.08819 15.5103 6.2989 14.664C8.67974 9.96652 11.9415 6.26631 15.4374 4.06551C16.3415 2.52243 18.4357 0.425295 21.2028 1.79935C22.2726 0.672229 24.0882 -0.538361 26.0013 0.254892C27.6884 0.954396 28.2628 2.49365 28.4167 3.47374C28.4373 3.60509 28.4504 3.7264 28.4576 3.8343C28.5742 3.80212 28.6948 3.78152 28.818 3.77146C30.1058 3.66632 31.6767 4.71222 31.875 5.72935C32.0276 6.51198 31.9781 7.88447 31.8852 8.48361C33.1456 11.2637 33.7387 14.7225 33.5783 18.4918C34.3767 19.838 35.4527 21.7635 35.3516 22.7892C35.2792 23.5234 34.9497 24.1348 34.6861 24.4604C34.5789 24.5928 34.4826 24.678 34.4189 24.705C34.4922 24.7745 34.5759 24.8674 34.662 24.9809C35.0576 25.502 35.5051 26.4577 35.2323 27.5808C34.9563 28.7166 34.026 29.3187 33.3755 29.5622C33.2428 29.6119 33.1218 29.6467 33.0203 29.668C33.0708 29.7608 33.1293 29.8722 33.1885 29.9975C33.4738 30.6018 33.7734 31.5298 33.2497 32.2549C32.799 32.8789 31.5717 33.7242 30.094 34.7419Z" fill="white"/>
<path d="M28.7614 27.3304C25.3101 36.9935 17.4728 43.0782 11.2561 40.9207C5.0395 38.7633 2.79772 29.1808 6.24898 19.5176C9.70025 9.85444 17.5376 3.76981 23.7543 5.92724C29.9709 8.08466 32.2127 17.6672 28.7614 27.3304Z" fill="#D87500"/>
<path d="M29.0115 26.6302C25.6983 35.9067 18.1746 41.7478 12.2067 39.6767C6.23883 37.6056 4.08676 28.4066 7.39992 19.1301C10.7131 9.85356 18.2368 4.01242 24.2047 6.08352C30.1726 8.15461 32.3247 17.3537 29.0115 26.6302Z" fill="#95C1E6"/>
<path d="M29.1709 26.1841C25.9457 35.2142 18.7858 40.9572 13.1788 39.0113C7.57182 37.0655 5.64096 28.1677 8.86613 19.1375C12.0913 10.1074 19.2512 4.36442 24.8582 6.31028C30.4652 8.25614 32.396 17.1539 29.1709 26.1841Z" fill="#C5E9FF"/>
<mask id="mask0_207_14755" style="mask-type:alpha" maskUnits="userSpaceOnUse" x="7" y="5" width="24" height="35">
<path d="M29.1548 26.1716C25.9207 35.2086 18.7608 40.9628 13.1627 39.0238C7.56462 37.0849 5.64818 28.1871 8.88225 19.15C12.1163 10.113 19.2762 4.35881 24.8743 6.29776C30.4724 8.2367 32.3888 17.1345 29.1548 26.1716Z" fill="#C5E9FF"/>
</mask>
<g mask="url(#mask0_207_14755)">
<path d="M27.8699 3.2525L6.88129 16.8001L7.43353 24.4663L31.5187 9.01125L27.8699 3.2525Z" fill="#E3F9FD"/>
<path d="M32.8102 10.7015L7.36397 27.4392L8.24243 30.7477L32.3318 15.2869L32.8102 10.7015Z" fill="#E3F9FD"/>
</g>
<path fill-rule="evenodd" clip-rule="evenodd" d="M21.5421 37.1388C24.5456 34.8071 27.2399 31.0576 28.8905 26.4362C30.5411 21.8148 30.8239 17.2284 29.9648 13.5561C29.1045 9.87883 27.1168 7.17055 24.2675 6.18174C21.4183 5.19293 18.1477 6.07636 15.1401 8.41135C12.1366 10.7431 9.44225 14.4926 7.7917 19.114C6.14114 23.7354 5.85828 28.3218 6.71738 31.994C7.57767 35.6714 9.56543 38.3796 12.4147 39.3684C15.2639 40.3573 18.5345 39.4738 21.5421 37.1388ZM12.2938 39.707C18.3097 41.7947 25.8941 35.9065 29.2339 26.5553C32.5737 17.2041 30.4043 7.93101 24.3884 5.84324C18.3725 3.75546 10.7881 9.64364 7.4483 18.9948C4.10846 28.3461 6.27786 37.6192 12.2938 39.707Z" fill="#804422"/>
<path fill-rule="evenodd" clip-rule="evenodd" d="M26.8132 2.82962C26.4208 2.16964 25.8348 1.55053 25.0124 1.21519L25.4299 0.220337C26.5297 0.66878 27.2784 1.48269 27.7555 2.28532C28.0813 2.83336 28.2924 3.3959 28.4043 3.87036C29.0679 3.82927 29.7579 3.98853 30.3352 4.25711C31.0695 4.59875 31.7881 5.19987 31.9462 5.9976L31.4102 6.10082L31.9462 5.9976C32.0407 6.47426 32.0001 6.99545 31.9372 7.43784C31.905 7.6638 31.865 7.88132 31.8285 8.07412C31.8214 8.11132 31.8146 8.14726 31.8079 8.18201C31.7916 8.26755 31.7766 8.34587 31.7635 8.41802C33.0064 11.1892 33.5884 14.5784 33.4507 18.2405C33.8353 18.8823 34.2789 19.653 34.6246 20.3953C34.81 20.7936 34.9725 21.1947 35.0823 21.5716C35.19 21.9411 35.2588 22.3257 35.2236 22.6771C35.1635 23.2762 34.9549 23.7987 34.7304 24.1858C34.6517 24.3215 34.5689 24.4443 34.4863 24.551C34.9401 25.1788 35.399 26.2386 35.0909 27.4859C34.7868 28.7167 33.8459 29.4054 33.0991 29.7335C33.1918 29.951 33.2794 30.1992 33.3362 30.4626C33.454 31.0087 33.453 31.6903 33.0107 32.2925C32.7319 32.6722 32.2506 33.077 31.7001 33.4886C31.1396 33.9076 30.4518 34.3735 29.7163 34.8717L29.7163 34.8717L29.7155 34.8722L29.707 34.878L29.707 34.878C28.6603 35.587 27.5054 36.3694 26.4119 37.2164C23.2224 41.2351 19.2967 43.9855 15.3708 44.8059C14.2268 45.1743 13.2917 46.0637 12.5398 47.1756C11.7912 48.2824 11.2595 49.5582 10.9044 50.6085C10.6828 51.5653 10.4886 52.5066 10.3009 53.4165C10.3008 53.4168 10.3007 53.4171 10.3007 53.4174L10.3006 53.4175C10.1968 53.9207 10.0994 54.4219 10.0043 54.9109C9.86156 55.6447 9.72419 56.351 9.5788 56.9953C9.33512 58.0754 9.05251 59.0637 8.63832 59.849C8.21933 60.6434 7.63911 61.2792 6.78344 61.5668C5.94092 61.8499 4.93539 61.7598 3.73853 61.3351L4.10847 60.3221C5.187 60.7048 5.917 60.7205 6.43097 60.5478C6.93178 60.3794 7.32902 59.9975 7.66926 59.3524C8.01431 58.6981 8.27272 57.825 8.51267 56.7616C8.65592 56.1267 8.78681 55.453 8.92602 54.7365C9.0213 54.2461 9.12047 53.7357 9.23018 53.2038C9.23024 53.2036 9.2303 53.2033 9.23036 53.203L9.23038 53.2029L9.23097 53.2C9.41984 52.2845 9.61823 51.3228 9.8456 50.3432L9.85142 50.3182L9.85963 50.2938C10.2305 49.1921 10.8013 47.8053 11.631 46.5784C12.4576 45.3561 13.5773 44.2396 15.0642 43.7721L15.0908 43.7637L15.1182 43.7581C18.7417 43.0096 22.4903 40.4286 25.5912 36.5031L25.6319 36.4516L25.6838 36.4112C26.822 35.5259 28.0226 34.7126 29.0791 33.997L29.0792 33.997L29.0825 33.9947M29.0884 33.9907L29.0885 33.9906C29.8342 33.4856 30.5019 33.0331 31.04 32.6308C31.5905 32.2192 31.9521 31.8981 32.126 31.6612C32.3191 31.3984 32.3504 31.0689 32.2679 30.6866C32.1849 30.3018 32.0004 29.9353 31.8585 29.6786L31.5069 29.0427L32.2258 28.8941C32.7279 28.7902 33.767 28.2944 34.0297 27.2312C34.3017 26.1302 33.6918 25.2105 33.3676 24.9079L32.7612 24.3418L33.4943 24.0363C33.5046 24.0272 33.5255 24.0076 33.5568 23.9722C33.6207 23.9 33.7009 23.7916 33.7822 23.6515C33.9453 23.3703 34.0945 22.9925 34.1367 22.5712C34.1523 22.4159 34.1241 22.1827 34.0326 21.8689C33.9432 21.5624 33.8043 21.2147 33.6319 20.8444C33.2869 20.1034 32.8288 19.3159 32.4291 18.6531L32.346 18.5153L32.353 18.3551C32.5113 14.6972 31.9243 11.367 30.7004 8.71208L30.6329 8.56566L30.6579 8.40675C30.6784 8.2765 30.707 8.12684 30.736 7.97552C30.7423 7.94243 30.7486 7.90926 30.7549 7.8762C30.7909 7.68647 30.827 7.48884 30.8555 7.28832C30.914 6.87775 30.9331 6.50066 30.8743 6.20404C30.8141 5.90061 30.4741 5.51227 29.869 5.23073C29.2834 4.9583 28.6094 4.86572 28.0966 5.0049L27.4513 5.18004L27.4068 4.52171C27.3825 4.16248 27.2096 3.49654 26.8132 2.82962" fill="#D87500"/>
<path d="M21.7627 1.61493C22.7821 1.18429 24.2012 1.01583 25.0435 1.22942L25.4033 0.358879L24.4932 0.179443L23.2189 0.538314C22.9762 0.657937 22.3452 1.04073 21.7627 1.61493Z" fill="#D87500"/>
<path d="M2.9606 58.8662C3.1369 59.6192 3.80472 60.1556 4.11659 60.3296L3.86529 61.2366L3.7841 61.1833L3.44774 60.9775L2.89875 60.0247C2.84591 59.3248 2.78431 58.1131 2.9606 58.8662Z" fill="#D87500"/>
<path fill-rule="evenodd" clip-rule="evenodd" d="M15.7083 4.32083L15.6334 4.36797C12.2033 6.52732 8.98202 10.1731 6.62457 14.8244L6.58384 14.9047L6.50949 14.9567C5.91111 15.375 5.28843 15.8517 4.8013 16.3082C4.55759 16.5366 4.35451 16.7537 4.20644 16.9504C4.05426 17.1527 3.98045 17.307 3.9598 17.4117C3.77237 18.3618 4.02061 18.8692 4.08411 18.9479L4.42536 19.3708L3.89756 19.5168C3.42801 19.6467 2.37441 20.22 2.0542 21.4169C1.74103 22.5875 2.47118 23.5771 2.88418 23.9222L3.25377 24.231L2.85005 24.495C2.59756 24.6601 2.23846 24.9135 1.95997 25.2401C1.68227 25.5657 1.51528 25.9267 1.5661 26.3229C1.61497 26.7039 1.77312 27.2527 2.01402 27.9467C2.25284 28.6347 2.56346 29.4391 2.90541 30.3246L3.01208 30.6009L3.01466 30.6587C3.21833 35.2046 4.59529 39.0823 6.92499 41.5816L6.94579 41.6039L6.96251 41.6294C7.69241 42.7407 8.03482 44.1899 8.03741 45.6634C8.04001 47.1392 7.70204 48.6696 7.03729 49.958C6.81641 50.3861 6.49505 50.9341 6.13491 51.5483L6.12991 51.5568C5.12742 53.2663 3.80872 55.5195 3.24281 57.49C2.95945 58.4766 2.881 59.3408 3.08298 60.0109C3.27562 60.65 3.73643 61.1575 4.66232 61.4318C5.64275 61.7223 6.37739 61.6921 6.9506 61.454C7.52553 61.2151 7.99411 60.7439 8.39482 60.0433C9.2094 58.619 9.66429 56.3985 10.1964 53.7757L10.1967 53.7739C10.3849 52.8466 10.582 51.8751 10.8078 50.8859L10.8116 50.8694L10.8169 50.8533C11.1832 49.7467 11.745 48.3606 12.558 47.1383C13.3686 45.9195 14.4538 44.8264 15.8802 44.3703L15.8982 44.3646L15.9167 44.3607C19.5758 43.5921 23.3407 40.9482 26.445 36.9523L26.4718 36.9178L26.5062 36.8906C27.6324 35.9998 28.8212 35.1807 29.8728 34.4565L29.8826 34.4485L29.8959 34.4406C30.6329 33.933 31.2976 33.4749 31.8347 33.0666C32.3824 32.6502 32.7623 32.311 32.9531 32.0468C33.1881 31.7215 33.2142 31.3255 33.1259 30.9092C33.0373 30.4916 32.8426 30.1008 32.6995 29.8376L32.4705 29.4167L32.9444 29.3171C33.4739 29.2057 34.5921 28.6745 34.8782 27.4972C35.1707 26.2934 34.5177 25.2969 34.1664 24.9635L33.7715 24.5886L34.2676 24.3784C34.2668 24.3788 34.2663 24.3789 34.2662 24.3788C34.2655 24.3776 34.3006 24.3542 34.3669 24.2779C34.4393 24.1946 34.5261 24.0747 34.6123 23.9234C34.7852 23.6204 34.944 23.2125 34.9892 22.7545C35.0081 22.5623 34.9729 22.2993 34.8791 21.9719C34.7866 21.6493 34.6443 21.288 34.4704 20.9083C34.1226 20.1487 33.6623 19.3444 33.264 18.6729L33.2101 18.5819L33.2146 18.4767C33.3731 14.7509 32.7857 11.3494 31.5529 8.63003L31.5092 8.53371L31.5254 8.42942C31.5683 8.15249 31.6033 7.67787 31.6081 7.17193C31.6129 6.6638 31.5869 6.15317 31.5175 5.79707C31.4373 5.38558 31.02 4.89187 30.4017 4.53557C29.7907 4.18351 29.0946 4.03117 28.5557 4.17988L28.1236 4.29912L28.0943 3.85778C28.0372 2.99952 27.5849 1.30082 25.8602 0.585688C24.1763 -0.112528 22.5209 0.935918 21.4686 2.04454L21.2824 2.24073L21.039 2.11985C19.775 1.49219 18.6883 1.65812 17.8001 2.1512C16.893 2.6548 16.1847 3.50766 15.7527 4.24499L15.7083 4.32083ZM30.094 34.7419C29.0379 35.4693 27.8539 36.2848 26.734 37.1705C23.596 41.2098 19.7627 43.9198 15.9925 44.7117C13.3625 45.5526 11.8855 48.782 11.163 50.9647C10.9381 51.9497 10.7418 52.9176 10.5534 53.846C9.499 59.0432 8.69592 63.0017 4.55752 61.7755C0.433576 60.5536 3.82237 54.7747 5.81471 51.3772C6.17885 50.7562 6.49634 50.2148 6.71279 49.7953C7.98492 47.3298 8.02078 43.901 6.65691 41.8244C4.25143 39.2438 2.85705 35.2747 2.65096 30.6745L2.56516 30.4523C1.88262 28.6848 1.31285 27.2094 1.20491 26.3679C1.09165 25.4848 1.8011 24.807 2.34248 24.4078C2.45476 24.325 2.55981 24.2541 2.64879 24.196C2.56964 24.1298 2.47969 24.0427 2.38665 23.9371C1.93056 23.4191 1.40004 22.4548 1.70218 21.3254C2.00033 20.2109 2.85068 19.578 3.44918 19.3026C3.5809 19.2419 3.70043 19.1986 3.79918 19.1713C3.74972 19.11 3.68937 19.0004 3.6381 18.8443C3.53463 18.5291 3.4681 18.0242 3.60243 17.3432C3.74594 16.6156 5.08819 15.5103 6.2989 14.664C8.67974 9.96652 11.9415 6.26631 15.4374 4.06551C16.3415 2.52243 18.4357 0.425295 21.2028 1.79935C22.2726 0.672229 24.0882 -0.538361 26.0013 0.254892C27.6884 0.954396 28.2628 2.49365 28.4167 3.47374C28.4373 3.60509 28.4504 3.7264 28.4576 3.8343C28.5742 3.80212 28.6948 3.78152 28.818 3.77146C30.1058 3.66632 31.6767 4.71222 31.875 5.72935C32.0276 6.51198 31.9781 7.88447 31.8852 8.48361C33.1456 11.2637 33.7387 14.7225 33.5783 18.4918C34.3767 19.838 35.4527 21.7635 35.3516 22.7892C35.2792 23.5234 34.9497 24.1348 34.6861 24.4604C34.5789 24.5928 34.4826 24.678 34.4189 24.705C34.4922 24.7745 34.5759 24.8674 34.662 24.9809C35.0576 25.502 35.5051 26.4577 35.2323 27.5808C34.9563 28.7166 34.026 29.3187 33.3755 29.5622C33.2428 29.6119 33.1218 29.6467 33.0203 29.668C33.0708 29.7608 33.1293 29.8722 33.1885 29.9975C33.4738 30.6018 33.7734 31.5298 33.2497 32.2549C32.799 32.8789 31.5717 33.7242 30.094 34.7419Z" fill="#804422"/>
<path d="M25.5608 2.60558C25.4737 2.9951 24.8425 3.18904 24.151 3.03876C23.4595 2.88847 22.9695 2.45088 23.0566 2.06136C23.1437 1.67185 23.7749 1.47791 24.4665 1.62819C25.158 1.77847 25.648 2.21607 25.5608 2.60558Z" fill="#FFDF6F"/>
<path d="M29.7214 5.99954C29.6343 6.38905 29.2033 6.6265 28.7587 6.52989C28.3142 6.43328 28.0244 6.0392 28.1115 5.64968C28.1987 5.26016 28.6297 5.02271 29.0742 5.11933C29.5188 5.21594 29.8085 5.61002 29.7214 5.99954Z" fill="#FFDF6F"/>
<path d="M19.4499 2.9964C19.5298 3.33335 19.2054 3.69619 18.7253 3.80685C18.2453 3.9175 17.7913 3.73405 17.7114 3.39711C17.6314 3.06016 17.9558 2.69732 18.4359 2.58667C18.916 2.47602 19.3699 2.65946 19.4499 2.9964Z" fill="#FFDF6F"/>
<path d="M3.98642 21.5943C3.78999 22.1421 3.34332 22.486 2.98876 22.3624C2.63419 22.2388 2.506 21.6947 2.70243 21.1469C2.89887 20.5992 3.34554 20.2553 3.7001 20.3789C4.05466 20.5024 4.18286 21.0466 3.98642 21.5943Z" fill="#FFDF6F"/>
<path d="M3.35498 26.3654C3.45657 26.7443 3.27203 27.1211 2.9428 27.2068C2.61356 27.2926 2.26431 27.0549 2.16271 26.676C2.06112 26.2971 2.24566 25.9204 2.57489 25.8346C2.90413 25.7488 3.25338 25.9865 3.35498 26.3654Z" fill="#FFDF6F"/>
<path d="M5.42953 17.6841C5.24447 18.0053 4.91984 18.168 4.70445 18.0474C4.48906 17.9268 4.46448 17.5687 4.64954 17.2475C4.8346 16.9263 5.15923 16.7636 5.37462 16.8842C5.59001 17.0048 5.61459 17.363 5.42953 17.6841Z" fill="#FFDF6F"/>
<path d="M31.7643 26.5172C31.6552 27.0894 31.8652 27.6073 32.2335 27.674C32.6018 27.7407 32.9888 27.3309 33.098 26.7587C33.2072 26.1865 32.9971 25.6686 32.6288 25.6018C32.2605 25.5351 31.8735 25.9449 31.7643 26.5172Z" fill="#FFDF6F"/>
<path d="M29.8897 30.9597C29.6087 31.2386 29.5761 31.6558 29.8169 31.8916C30.0577 32.1273 30.4807 32.0924 30.7617 31.8135C31.0427 31.5346 31.0753 31.1174 30.8345 30.8816C30.5937 30.6459 30.1707 30.6808 29.8897 30.9597Z" fill="#FFDF6F"/>
<path d="M32.4973 22.419C32.4935 22.7891 32.6902 23.09 32.9368 23.0909C33.1833 23.0919 33.3863 22.7927 33.3901 22.4225C33.3939 22.0524 33.1971 21.7516 32.9506 21.7506C32.704 21.7496 32.5011 22.0489 32.4973 22.419Z" fill="#FFDF6F"/>
<path d="M4.17924 59.1182C3.13962 58.9874 4.25986 56.1826 5.0324 54.6218C5.09272 54.4999 5.23868 54.403 5.3373 54.4976C5.57884 54.7291 5.39494 55.4808 5.13159 56.3304C4.81414 57.3545 5.53561 59.2889 4.17924 59.1182Z" fill="#FFDF6F"/>
</svg>
