<svg width="31" height="31" viewBox="0 0 31 31" fill="none" xmlns="http://www.w3.org/2000/svg">
<g clip-path="url(#clip0_11_297)">
<path d="M15.5 20.3438C11.2272 20.3438 7.75 16.8666 7.75 12.5938C7.75 8.32092 11.2272 4.84375 15.5 4.84375C19.7728 4.84375 23.25 8.32092 23.25 12.5938C23.25 16.8666 19.7728 20.3438 15.5 20.3438ZM15.5 6.78125C12.2954 6.78125 9.6875 9.38912 9.6875 12.5938C9.6875 15.7984 12.2954 18.4062 15.5 18.4062C18.7046 18.4062 21.3125 15.7984 21.3125 12.5938C21.3125 9.38912 18.7046 6.78125 15.5 6.78125Z" fill="#00B2A9"/>
<path d="M15.5 31C12.0422 31 8.76912 29.8788 6.0295 27.7579C6.00238 27.7424 5.94425 27.7088 5.88742 27.652C5.88096 27.6455 5.87321 27.6378 5.86675 27.63C2.13771 24.6631 0 20.2456 0 15.5C0 6.95304 6.95304 0 15.5 0C24.047 0 31 6.95304 31 15.5C31 20.2456 28.8623 24.6631 25.132 27.63C25.1255 27.6378 25.119 27.6442 25.1126 27.6507C25.057 27.7062 25.0002 27.7398 24.9679 27.7592C22.2309 29.8788 18.9578 31 15.5 31ZM8.11683 26.868C10.3204 28.3056 12.8598 29.0625 15.5 29.0625C18.1415 29.0625 20.6809 28.3056 22.8845 26.868C20.8126 25.1604 18.2138 24.2265 15.5013 24.2265C12.7888 24.2252 10.19 25.1604 8.11683 26.868ZM15.5 1.9375C8.02125 1.9375 1.9375 8.02125 1.9375 15.5C1.9375 19.4047 3.60892 23.0885 6.53842 25.6706C9.01196 23.4877 12.1778 22.2903 15.5 22.2903C18.8235 22.2903 21.988 23.4877 24.4616 25.6693C27.3911 23.086 29.0625 19.4034 29.0625 15.4987C29.0625 8.02125 22.9787 1.9375 15.5 1.9375Z" fill="#00B2A9"/>
</g>
<defs>
<clipPath id="clip0_11_297">
<rect width="31" height="31" fill="white"/>
</clipPath>
</defs>
</svg>
