<svg width="43" height="34" viewBox="0 0 43 34" fill="none" xmlns="http://www.w3.org/2000/svg">
<path d="M5.92713 8.9598C6.35232 8.9598 6.70868 9.32232 6.70868 9.74749V29.1521C6.70868 30.3661 6.25783 31.0243 5.76003 31.0039C5.26019 30.9616 4.95136 30.6423 4.57255 29.6852C4.09749 28.5143 3.3139 28.1746 2.34338 28.1329C1.53471 28.092 0.253024 28.7292 0.0611361 29.8112C-0.127544 30.8945 0.157372 32.1077 1.96339 32.7886C4.38095 33.6819 6.51942 32.1937 6.51942 32.1937L11.7637 28.6645C11.7637 28.6645 13.0451 27.9418 13.5913 27.1116C14.2795 26.1119 14.2582 24.8608 14.2582 24.8608V9.74749C14.2582 9.30247 14.6113 8.9598 15.0377 8.9598H15.7018C16.6073 8.9598 16.9374 8.34478 17.0073 8.08901C17.1287 7.68483 17.3655 7.42996 18.0537 7.42996H20.2598C20.9267 7.42996 21.4735 7.707 21.4735 8.64341V27.328C21.4735 27.328 21.4966 27.92 21.8497 28.1746C22.3277 28.5143 22.873 28.3029 23.1098 28.1329C23.3965 27.9418 28.1179 24.8807 28.1179 24.8807C28.7577 24.4555 28.7577 23.669 28.7577 23.669V8.38704C28.7577 7.83153 29.2331 7.42996 29.7789 7.42996H34.265C34.265 7.42996 34.3111 7.42995 34.3834 7.40808L34.4316 7.3235V5.02904L34.3834 4.94154L34.2904 4.92317H17.7452C16.8901 4.92317 16.4635 5.6006 16.3946 5.85577C16.2739 6.26175 15.9421 6.55798 15.3719 6.55798H4.83355C4.16835 6.55798 3.62447 7.09139 3.62447 7.74926C3.62447 8.42758 4.16835 8.9598 4.83355 8.9598H5.92713Z" fill="white"/>
<path d="M41.8604 0.925809C42.5002 0.925809 43 1.45803 43 2.13575C43 2.79653 42.5002 3.32643 41.8604 3.32643H37.6129H36.2597C35.6182 3.32643 35.1198 2.79653 35.1198 2.11649C35.1198 1.45803 35.6182 0.925809 36.2597 0.925809H41.8604Z" fill="white"/>
<path d="M35.4274 4.92307V23.0512C35.4274 23.0512 35.4725 23.6266 35.8079 23.8803C36.2815 24.2434 36.8289 24.0092 37.068 23.8628C37.3489 23.6689 42.0731 20.6089 42.0731 20.6089C42.7147 20.1843 42.7147 19.3966 42.7147 19.3966V4.92307H35.4274Z" fill="white"/>
</svg>
