<svg width="51" height="51" viewBox="0 0 51 51" fill="none" xmlns="http://www.w3.org/2000/svg">
<g clip-path="url(#clip0_11_190)">
<path d="M25.5 33.4688C18.4705 33.4688 12.75 27.7483 12.75 20.7188C12.75 13.6892 18.4705 7.96875 25.5 7.96875C32.5295 7.96875 38.25 13.6892 38.25 20.7188C38.25 27.7483 32.5295 33.4688 25.5 33.4688ZM25.5 11.1562C20.2279 11.1562 15.9375 15.4466 15.9375 20.7188C15.9375 25.9909 20.2279 30.2812 25.5 30.2812C30.7721 30.2812 35.0625 25.9909 35.0625 20.7188C35.0625 15.4466 30.7721 11.1562 25.5 11.1562Z" fill="white"/>
<path d="M25.5 51C19.8114 51 14.4266 49.1555 9.9195 45.6662C9.87488 45.6408 9.77925 45.5855 9.68575 45.492C9.67513 45.4814 9.66237 45.4686 9.65175 45.4559C3.51687 40.5748 0 33.3073 0 25.5C0 11.4389 11.4389 0 25.5 0C39.5611 0 51 11.4389 51 25.5C51 33.3073 47.4831 40.5748 41.3461 45.4559C41.3355 45.4686 41.3249 45.4792 41.3142 45.4899C41.2229 45.5812 41.1294 45.6365 41.0762 45.6684C36.5734 49.1555 31.1886 51 25.5 51ZM13.3535 44.2021C16.9788 46.5673 21.1565 47.8125 25.5 47.8125C29.8456 47.8125 34.0234 46.5673 37.6486 44.2021C34.2401 41.3929 29.9646 39.8565 25.5021 39.8565C21.0396 39.8544 16.7641 41.3929 13.3535 44.2021ZM25.5 3.1875C13.1962 3.1875 3.1875 13.1962 3.1875 25.5C3.1875 31.9239 5.93725 37.9844 10.7567 42.2323C14.8261 38.641 20.0345 36.6711 25.5 36.6711C30.9676 36.6711 36.1739 38.641 40.2432 42.2301C45.0627 37.9801 47.8125 31.9217 47.8125 25.4979C47.8125 13.1962 37.8037 3.1875 25.5 3.1875Z" fill="white"/>
</g>
<defs>
<clipPath id="clip0_11_190">
<rect width="51" height="51" fill="white"/>
</clipPath>
</defs>
</svg>
